<?xml version="1.0" encoding="UTF-8"?>
<svg version="1.1" xmlns="http://www.w3.org/2000/svg" width="32" height="32">
<path d="M0 0 C10.56 0 21.12 0 32 0 C32 10.56 32 21.12 32 32 C21.44 32 10.88 32 0 32 C0 21.44 0 10.88 0 0 Z " fill="#FBFBFB" transform="translate(0,0)"/>
<path d="M0 0 C1.7015625 0.2165625 1.7015625 0.2165625 3.4375 0.4375 C4.52998047 0.57091797 4.52998047 0.57091797 5.64453125 0.70703125 C7.20590424 0.90123187 8.76590359 1.10684033 10.32421875 1.32421875 C14.80014235 1.90935647 18.53907759 2.02944363 23 1 C23.33 2.32 23.66 3.64 24 5 C23.18015625 4.98839844 22.3603125 4.97679687 21.515625 4.96484375 C20.43796875 4.95582031 19.3603125 4.94679688 18.25 4.9375 C17.18265625 4.92589844 16.1153125 4.91429687 15.015625 4.90234375 C12.4476256 4.98550435 10.45409797 5.34990782 8 6 C6.32457024 5.71395102 4.65614657 5.38218767 3 5 C2.01 5 1.02 5 0 5 C0 3.35 0 1.7 0 0 Z " fill="#999999" transform="translate(4,13)"/>
<path d="M0 0 C3.63 0.66 7.26 1.32 11 2 C11 3.32 11 4.64 11 6 C9.1128125 5.7525 9.1128125 5.7525 7.1875 5.5 C4.73543415 5.17841759 2.48349306 5 0 5 C0 3.35 0 1.7 0 0 Z " fill="#848484" transform="translate(4,13)"/>
</svg>
